<?xml version="1.0" standalone="no"?>
<!DOCTYPE svg PUBLIC "-//W3C//DTD SVG 20010904//EN"
 "http://www.w3.org/TR/2001/REC-SVG-20010904/DTD/svg10.dtd">
<svg version="1.0" xmlns="http://www.w3.org/2000/svg"
 width="520.000000pt" height="520.000000pt" viewBox="0 0 520.000000 520.000000"
 preserveAspectRatio="xMidYMid meet">
<metadata>
Created by potrace 1.11, written by Peter Selinger 2001-2013
</metadata>
<g transform="translate(0.000000,520.000000) scale(0.100000,-0.100000)"
fill="#000000" stroke="none">
<path d="M183 4113 l-183 -3 0 -545 0 -545 483 -3 482 -2 -482 -3 -483 -2 0
-59 c0 -57 1 -60 28 -64 l27 -4 -27 -2 -28 -1 0 -135 0 -135 217 -3 218 -2
-217 -3 -218 -2 0 -25 0 -25 602 0 c331 0 599 -2 597 -4 -4 -4 -789 -16 -1046
-16 l-153 0 0 -25 0 -25 568 -3 567 -2 -567 -3 -568 -2 0 -30 0 -30 603 -3
602 -2 -602 -3 -603 -2 0 -30 0 -30 383 -3 382 -2 -382 -3 -383 -2 0 -30 0
-30 603 -3 602 -2 -602 -3 -603 -2 0 -25 0 -25 878 -3 877 -2 -877 -3 -878 -2
0 -29 c0 -27 4 -30 38 -34 l37 -4 -37 -1 c-33 -2 -38 -5 -38 -27 l0 -25 802 0
c441 0 799 -2 797 -5 -3 -2 -364 -5 -802 -5 l-797 -1 0 -34 0 -35 257 -3 258
-2 -257 -3 -258 -2 0 -50 0 -49 82 -4 83 -3 -82 -2 -83 -2 0 -535 0 -535 763
0 c580 0 766 3 775 12 8 8 12 50 12 123 0 117 6 135 45 135 34 0 45 -20 45
-86 0 -100 -10 -94 171 -94 152 0 158 1 173 22 9 12 16 39 16 60 l0 38 -58 0
c-76 0 -102 22 -102 85 0 85 -149 77 1484 75 798 -2 1547 -2 1664 -2 l212 2 0
1460 0 1460 -64 0 c-36 0 -68 5 -71 10 -8 14 -151 13 -177 -1 -15 -8 -26 -8
-43 1 -15 8 -44 10 -86 5 -35 -3 -119 -6 -186 -5 -67 1 -127 -1 -133 -5 -11
-7 -396 -7 -1545 0 -1351 8 -2532 12 -2712 8z m3467 -413 c228 -28 490 -161
636 -323 122 -135 235 -363 263 -532 16 -99 23 -238 13 -265 -7 -19 -10 4 -14
93 -2 68 -9 121 -15 125 -6 4 -12 16 -15 27 -2 11 -2 -49 0 -133 3 -89 1 -157
-5 -163 -6 -6 -10 36 -10 113 -1 151 -31 277 -98 416 -58 120 -92 170 -184
266 -95 98 -173 154 -294 211 -128 61 -226 85 -372 92 -362 16 -691 -156 -889
-464 -33 -51 -61 -91 -64 -89 -2 3 2 14 8 26 10 18 9 25 -3 37 -13 13 -17 10
-36 -20 -12 -19 -28 -52 -35 -73 -14 -38 -15 -38 -15 -10 -1 33 61 152 123
236 120 165 279 287 472 363 173 69 344 90 534 67z m-3543 -496 c-3 -3 -12 -4
-19 -1 -8 3 -5 6 6 6 11 1 17 -2 13 -5z m196 -1 c-7 -2 -21 -2 -30 0 -10 3 -4
5 12 5 17 0 24 -2 18 -5z m140 0 c-7 -2 -19 -2 -25 0 -7 3 -2 5 12 5 14 0 19
-2 13 -5z m530 -50 c-111 -2 -295 -2 -410 0 -114 1 -23 2 202 2 226 0 319 -1
208 -2z m370 0 c-7 -2 -19 -2 -25 0 -7 3 -2 5 12 5 14 0 19 -2 13 -5z m94 1
c-3 -3 -12 -4 -19 -1 -8 3 -5 6 6 6 11 1 17 -2 13 -5z m1957 -25 c12 -18 21
-21 54 -15 22 3 76 1 122 -5 72 -9 85 -8 101 7 17 15 21 14 71 -12 29 -16 82
-58 118 -93 64 -63 65 -64 42 -79 -25 -16 -29 -37 -9 -45 15 -6 61 -139 55
-158 -2 -7 -12 3 -21 22 -10 20 -17 27 -17 17 0 -10 -5 -18 -11 -18 -6 0 -8
-8 -5 -18 5 -16 2 -18 -24 -14 -29 4 -30 4 -30 -40 0 -24 5 -49 10 -54 8 -8 6
-15 -5 -24 -8 -7 -15 -20 -15 -30 0 -22 24 -32 39 -17 8 8 11 6 11 -6 0 -26
-27 -86 -55 -123 -29 -38 -32 -64 -7 -64 37 0 112 157 115 242 1 34 6 48 16
48 11 0 13 -13 8 -61 -5 -54 -3 -62 14 -66 24 -7 19 -34 -21 -118 -42 -87 -53
-100 -75 -87 -15 8 -29 2 -72 -33 -29 -24 -77 -55 -107 -70 -37 -18 -56 -34
-60 -50 -5 -18 -15 -26 -42 -31 -49 -9 -210 2 -257 17 -32 11 -37 16 -33 35 5
17 -4 28 -48 57 -30 20 -75 57 -99 83 -38 40 -49 46 -71 40 -25 -6 -29 -2 -57
59 -17 36 -33 83 -36 105 -5 38 -4 40 21 40 25 0 26 1 26 65 0 45 4 65 13 65
8 0 12 -23 13 -78 1 -66 6 -89 34 -150 24 -51 38 -72 51 -72 25 0 24 21 -2 65
-22 37 -41 104 -33 116 13 21 45 -10 79 -77 20 -42 39 -73 42 -71 2 3 -5 23
-15 44 -11 21 -23 55 -27 75 -6 32 -4 37 11 37 18 0 111 15 161 25 11 3 42 8
67 11 86 13 77 21 -113 95 -58 22 -107 38 -109 35 -3 -3 -14 -22 -24 -43 -17
-35 -18 -35 -13 -7 3 17 8 38 11 47 4 13 -9 22 -56 39 -69 25 -73 36 -34 92
24 37 25 39 9 64 -16 24 -16 26 17 60 45 48 102 86 173 116 74 32 80 32 99 6z
m-808 -106 c-8 -15 -15 -22 -16 -15 0 17 20 55 27 49 2 -3 -2 -18 -11 -34z
m-1391 -3 c3 -5 1 -10 -4 -10 -6 0 -11 5 -11 10 0 6 2 10 4 10 3 0 8 -4 11
-10z m-182 -7 c-7 -2 -19 -2 -25 0 -7 3 -2 5 12 5 14 0 19 -2 13 -5z m505 0
c-49 -2 -127 -2 -175 0 -49 1 -9 3 87 3 96 0 136 -2 88 -3z m169 1 c-3 -3 -12
-4 -19 -1 -8 3 -5 6 6 6 11 1 17 -2 13 -5z m-1544 -131 c-7 -2 -21 -2 -30 0
-10 3 -4 5 12 5 17 0 24 -2 18 -5z m355 0 c-60 -2 -156 -2 -215 0 -60 1 -11 3
107 3 118 0 167 -2 108 -3z m225 0 c-18 -2 -48 -2 -65 0 -18 2 -4 4 32 4 36 0
50 -2 33 -4z m389 0 c-51 -2 -132 -2 -180 0 -48 1 -6 3 93 3 99 0 138 -2 87
-3z m406 0 c-49 -2 -127 -2 -175 0 -49 1 -9 3 87 3 96 0 136 -2 88 -3z m-405
-140 c-7 -2 -19 -2 -25 0 -7 3 -2 5 12 5 14 0 19 -2 13 -5z m70 0 c-7 -2 -21
-2 -30 0 -10 3 -4 5 12 5 17 0 24 -2 18 -5z m370 0 c-29 -2 -78 -2 -110 0 -32
2 -8 3 52 3 61 0 87 -1 58 -3z m140 0 c-13 -2 -33 -2 -45 0 -13 2 -3 4 22 4
25 0 35 -2 23 -4z m-1045 -60 c-10 -2 -26 -2 -35 0 -10 3 -2 5 17 5 19 0 27
-2 18 -5z m425 0 c-72 -2 -194 -2 -270 0 -76 1 -16 3 132 3 149 0 211 -2 138
-3z m254 1 c-3 -3 -12 -4 -19 -1 -8 3 -5 6 6 6 11 1 17 -2 13 -5z m61 -1 c-10
-2 -26 -2 -35 0 -10 3 -2 5 17 5 19 0 27 -2 18 -5z m89 1 c-3 -3 -12 -4 -19
-1 -8 3 -5 6 6 6 11 1 17 -2 13 -5z m111 -1 c-10 -2 -26 -2 -35 0 -10 3 -2 5
17 5 19 0 27 -2 18 -5z m1529 -35 c-3 -8 -6 -5 -6 6 -1 11 2 17 5 13 3 -3 4
-12 1 -19z m769 -55 c-11 -11 -19 6 -11 24 8 17 8 17 12 0 3 -10 2 -21 -1 -24z
m-3248 10 c-32 -2 -86 -2 -120 0 -35 2 -9 3 57 3 66 0 94 -1 63 -3z m99 1 c-3
-3 -12 -4 -19 -1 -8 3 -5 6 6 6 11 1 17 -2 13 -5z m66 -1 c-7 -2 -19 -2 -25 0
-7 3 -2 5 12 5 14 0 19 -2 13 -5z m705 0 c-49 -2 -127 -2 -175 0 -49 1 -9 3
87 3 96 0 136 -2 88 -3z m-183 -63 c-25 -11 -108 -13 -101 -2 3 5 31 9 63 10
41 1 52 -1 38 -8z m274 -5 c2 -3 -52 -4 -120 -3 -86 1 -110 3 -79 8 46 7 190
3 199 -5z m69 -2 c-10 -2 -26 -2 -35 0 -10 3 -2 5 17 5 19 0 27 -2 18 -5z
m-475 -60 c-7 -2 -19 -2 -25 0 -7 3 -2 5 12 5 14 0 19 -2 13 -5z m70 0 c-7 -2
-19 -2 -25 0 -7 3 -2 5 12 5 14 0 19 -2 13 -5z m265 0 c-42 -2 -114 -2 -160 0
-46 1 -11 3 77 3 88 0 125 -2 83 -3z m2962 -50 c-11 -17 -11 -17 -6 0 3 10 7
26 7 35 1 15 2 15 6 0 2 -10 -1 -25 -7 -35z m-1870 -243 c67 -133 224 -296
369 -384 269 -162 602 -189 891 -73 210 85 402 260 520 474 29 53 39 49 12 -4
-27 -53 -37 -87 -23 -79 6 4 11 2 11 -3 0 -18 37 25 55 63 10 20 20 35 22 32
3 -3 -14 -39 -37 -82 -184 -332 -502 -531 -880 -551 -291 -15 -575 90 -789
293 -92 86 -159 176 -216 289 -46 93 -79 185 -65 185 4 0 11 -12 15 -27 7 -31
41 -110 55 -133 6 -8 15 -26 21 -40 15 -36 75 -124 95 -141 16 -13 16 -12 0
14 -17 25 -17 27 -2 27 15 0 15 2 -1 24 -10 13 -21 22 -25 19 -5 -2 -8 3 -8
11 0 9 -9 31 -19 49 -33 59 -39 71 -60 117 -23 53 -41 117 -40 145 0 11 15
-20 33 -70 18 -49 48 -119 66 -155z m-1107 223 c-51 -2 -136 -2 -190 0 -54 1
-12 3 92 3 105 0 149 -2 98 -3z m170 0 c-13 -2 -33 -2 -45 0 -13 2 -3 4 22 4
25 0 35 -2 23 -4z m-285 -70 c-114 -2 -303 -2 -420 0 -117 1 -24 2 207 2 231
0 327 -1 213 -2z m300 0 c-16 -2 -40 -2 -55 0 -16 2 -3 4 27 4 30 0 43 -2 28
-4z m-190 -70 c-54 -2 -142 -2 -195 0 -54 1 -10 3 97 3 107 0 151 -2 98 -3z
m155 0 c-7 -2 -21 -2 -30 0 -10 3 -4 5 12 5 17 0 24 -2 18 -5z m44 1 c-3 -3
-12 -4 -19 -1 -8 3 -5 6 6 6 11 1 17 -2 13 -5z m-909 -131 c-131 -2 -345 -2
-475 0 -131 1 -24 2 237 2 261 0 368 -1 238 -2z m375 0 c-18 -2 -48 -2 -65 0
-18 2 -4 4 32 4 36 0 50 -2 33 -4z m80 0 c-7 -2 -19 -2 -25 0 -7 3 -2 5 12 5
14 0 19 -2 13 -5z m265 0 c-42 -2 -114 -2 -160 0 -46 1 -11 3 77 3 88 0 125
-2 83 -3z m209 1 c-3 -3 -12 -4 -19 -1 -8 3 -5 6 6 6 11 1 17 -2 13 -5z m-10
-61 c-20 -2 -52 -2 -70 0 -17 2 0 4 38 4 39 0 53 -2 32 -4z m-1162 -73 c3 -5
-1 -10 -9 -10 -9 0 -16 5 -16 10 0 6 4 10 9 10 6 0 13 -4 16 -10z m130 0 c-27
-4 -54 -3 -59 1 -6 5 15 8 50 8 l59 -2 -50 -7z m132 -2 c-21 -7 -32 -7 -40 1
-8 8 0 11 29 10 39 -1 39 -1 11 -11z m123 1 c-32 -4 -59 -4 -64 2 -6 5 15 9
55 8 l64 -1 -55 -9z m380 1 c-30 -5 -61 -5 -69 0 -8 4 14 8 55 8 l69 -1 -55
-7z m280 0 c0 -5 -7 -10 -16 -10 -8 0 -12 5 -9 10 3 6 10 10 16 10 5 0 9 -4 9
-10z m109 6 c-10 -10 -79 -15 -79 -6 0 6 19 10 42 10 23 0 39 -2 37 -4z
m-1596 -73 c-7 -2 -21 -2 -30 0 -10 3 -4 5 12 5 17 0 24 -2 18 -5z m75 0 c-10
-2 -28 -2 -40 0 -13 2 -5 4 17 4 22 1 32 -1 23 -4z m195 0 c-13 -2 -35 -2 -50
0 -16 2 -5 4 22 4 28 0 40 -2 28 -4z m-23 -63 c-13 -8 -169 -3 -179 6 -2 2 40
4 95 4 66 0 94 -3 84 -10z m-74 -700 c15 -6 25 -13 22 -15 -3 -3 -20 1 -39 9
-38 17 -25 21 17 6z m110 -88 c-11 -10 -14 3 -7 38 l6 35 3 -33 c2 -19 1 -36
-2 -40z m49 57 c11 -16 1 -19 -13 -3 -7 8 -8 14 -3 14 5 0 13 -5 16 -11z m132
-41 c-2 -13 -4 -5 -4 17 -1 22 1 32 4 23 2 -10 2 -28 0 -40z m203 42 c0 -5 -4
-10 -10 -10 -5 0 -10 5 -10 10 0 6 5 10 10 10 6 0 10 -4 10 -10z m-445 -10
c-3 -5 -12 -10 -18 -10 -7 0 -6 4 3 10 19 12 23 12 15 0z m407 -42 c-8 -8 -9
-4 -5 13 4 13 8 18 11 10 2 -7 -1 -18 -6 -23z m-282 2 c0 -5 -2 -10 -4 -10 -3
0 -8 5 -11 10 -3 6 -1 10 4 10 6 0 11 -4 11 -10z m60 0 c0 -5 -4 -10 -10 -10
-5 0 -10 5 -10 10 0 6 5 10 10 10 6 0 10 -4 10 -10z m-180 -18 c0 -4 -15 -9
-32 -10 -25 -2 -29 0 -18 8 18 12 50 13 50 2z"/>
<path d="M3650 3073 c1 -5 23 -19 51 -32 28 -12 78 -48 111 -80 34 -31 56 -47
50 -36 -17 33 -73 81 -136 119 -60 36 -76 42 -76 29z"/>
<path d="M3285 3048 c-39 -21 -115 -82 -115 -92 0 -5 12 2 28 16 15 14 46 38
70 53 23 15 42 29 42 31 0 6 -3 5 -25 -8z"/>
<path d="M3325 3034 c-81 -42 -165 -109 -165 -134 0 -21 24 -9 72 36 42 39
105 75 171 97 9 4 17 11 17 17 0 18 -43 10 -95 -16z"/>
<path d="M3630 3037 c0 -7 21 -23 47 -36 66 -32 116 -73 138 -115 20 -36 55
-50 55 -21 0 24 -112 131 -167 159 -59 29 -73 32 -73 13z"/>
<path d="M3876 2834 c-5 -14 -4 -15 9 -4 17 14 19 20 6 20 -5 0 -12 -7 -15
-16z"/>
<path d="M3796 2702 c-3 -5 -57 -19 -121 -32 -63 -12 -115 -26 -115 -29 0 -4
44 -8 97 -9 54 -1 101 -6 105 -10 5 -5 -31 -7 -79 -5 -63 3 -84 1 -73 -6 24
-17 2 -12 -42 9 -23 11 -43 18 -46 16 -5 -6 105 -76 148 -94 19 -8 39 -20 45
-28 5 -7 21 -15 35 -16 20 -2 26 2 28 21 2 13 -1 21 -6 17 -11 -6 -132 53
-132 65 0 5 21 -1 46 -11 25 -11 56 -20 68 -20 25 0 51 -18 59 -40 3 -8 6 23
6 70 1 80 -9 124 -23 102z m11 -88 c-3 -3 -12 -4 -19 -1 -8 3 -5 6 6 6 11 1
17 -2 13 -5z"/>
<path d="M3806 2491 c-4 -5 -2 -20 3 -33 9 -21 10 -21 10 10 1 32 -3 39 -13
23z"/>
<path d="M3728 2463 c7 -3 16 -2 19 1 4 3 -2 6 -13 5 -11 0 -14 -3 -6 -6z"/>
<path d="M3324 2269 c-14 -23 48 -47 145 -55 84 -7 155 6 159 28 3 15 -6 16
-85 11 -66 -4 -103 -2 -145 11 -67 19 -65 19 -74 5z"/>
</g>
</svg>
