<?xml version="1.0" encoding="utf-8"?>
<!-- Svg Vector Icons : http://www.onlinewebfonts.com/icon -->
<!DOCTYPE svg PUBLIC "-//W3C//DTD SVG 1.1//EN" "http://www.w3.org/Graphics/SVG/1.1/DTD/svg11.dtd">
<svg version="1.1" xmlns="http://www.w3.org/2000/svg" xmlns:xlink="http://www.w3.org/1999/xlink" x="0px" y="0px" viewBox="0 0 1000 1000" enable-background="new 0 0 1000 1000" xml:space="preserve">
<metadata> Svg Vector Icons : http://www.onlinewebfonts.com/icon </metadata>
<g><path fill="#FFF" d="M809.3,124.6l1.5-49.4C719.4,29.5,617.9,2.1,506.3,2.1c-111.5,0-225.8,27.4-317.2,73.1l1.5,49.4L500,327.5L809.3,124.6z M500,100.5c63.6,0,117,20.4,117,20.4l-117,78.6l-117-78.6C383,120.9,436.4,100.5,500,100.5z M570.3,759.5V521.3l15.9-204.8L500,373.2l-84.1-56.7l18,204.8v238.2H570.3z M377.5,294.6L147.1,141l-1.5-59.8H10l20.1,290.1L194.7,489h201.1L377.5,294.6L377.5,294.6z M116,307.4l217.6,102.4l3.6,33.6l-215.7-97.6L116,307.4L116,307.4z M106.9,203.2l215.7,104.2l5.5,36.3L110.5,243.4L106.9,203.2L106.9,203.2z M103.2,846.8l160.7,82.3V609.7l-94.9-59v-36.6l-93.2-64L103.2,846.8L103.2,846.8z M400,794V556l-104.2,53v345.6l47,29.2l64-156h186.5l64,156l49.1-29.2V609.1l-104.2-53V794L400,794L400,794z M437.8,864.5l-47.5,133.4h219.4l-47.5-133.4H437.8z M604.2,489h201.1l164.6-117.6L990,81.3H854.4l-1.6,59.8L622.4,294.6L604.2,489L604.2,489z M878.4,345.8L660.6,447.6l5.8-37.8l217.6-102.4L878.4,345.8z M889.4,243.4L671.8,345.8l5.5-38.4l215.7-104.2L889.4,243.4z M924.1,450l-93.2,64v36.6l-93.5,59V929l159.3-82.3L924.1,450z"/></g>
</svg>